<?xml version="1.0" encoding="UTF-8" standalone="no"?>
<svg
   xmlns:dc="http://purl.org/dc/elements/1.1/"
   xmlns:cc="http://creativecommons.org/ns#"
   xmlns:rdf="http://www.w3.org/1999/02/22-rdf-syntax-ns#"
   xmlns:svg="http://www.w3.org/2000/svg"
   xmlns="http://www.w3.org/2000/svg"
   version="1.1"
   id="svg2"
   viewBox="0 0 165 60"
   height="60"
   width="165">
  <metadata
     id="metadata3345">
    <rdf:RDF>
      <cc:Work
         rdf:about="">
        <dc:format>image/svg+xml</dc:format>
        <dc:type
           rdf:resource="http://purl.org/dc/dcmitype/StillImage" />
        <dc:title></dc:title>
      </cc:Work>
    </rdf:RDF>
  </metadata>
  <defs
     id="defs4" />
  <g
     transform="matrix(0.999,0,0,0.995,-4.98,-4.95)"
     id="logo">
    <path
       id="sky"
       style="fill:#35b0f3"
       d="m 46.7,32.9 0,0 c 0.4,0.5 0.7,1 1.1,1.5 0,0 0,0 0,0 0.7,1.2 1.5,2.3 2.5,3.3 0.9,0.9 1.9,1.5 3,2 0,0 0,0 0.1,0 1.1,0.5 2.2,0.7 3.3,0.7 l 0.1,0 c 1,0 2,-0.1 2.9,-0.4 l 0.4,-0.1 0,-25 c 0,-3.3 -1.7,-4.9 -5,-4.9 L 15,10 c -3.3,0 -5.01,1.6 -5.01,4.9 l 0,25.8 c 1.51,-0.1 2.91,-0.3 4.41,-0.6 0,0 0,0 0,0 1.5,-0.2 3,-0.5 4.4,-0.9 l 0,0 c 1.5,-0.3 3,-0.7 4.5,-1.1 1.5,-0.4 3,-0.9 4.4,-1.4 1.5,-0.6 3,-1.2 4.4,-1.7 0,0 0.1,0 0.1,-0.1 1.5,-0.6 2.9,-1.2 4.3,-1.9 1.5,-0.7 3,-1.3 4.6,-1.8 2.3,-0.6 4.2,-0.1 5.6,1.7" />
    <path
       id="green"
       style="fill:#79c600;fill-opacity:1;fill-rule:nonzero;stroke:none"
       d="m 41.8,34 0,0 c -1.4,0.5 -2.8,1 -4.2,1.6 -1.5,0.7 -2.9,1.4 -4.5,2.1 0,0 0,0 0,0 -1.5,0.5 -3,1.1 -4.5,1.6 l 0,0.1 c -1.5,0.6 -3,1 -4.6,1.5 -1.5,0.4 -3,0.8 -4.6,1.1 l 0,0 c -1.4,0.4 -3,0.7 -4.6,1 l 0.1,0 c -1.6,0.3 -3.2,0.5 -4.8,0.6 l -0.1,0 0,11.7 c 0,3.3 1.7,5 5,5 l 40.1,0 c 3.3,0 4.9,-1.7 4.9,-5 l 0,-12.4 c -1,0.2 -2.1,0.3 -3.2,0.3 -1.6,0.1 -3,-0.2 -4.4,-0.8 l -0.1,-0.1 c -1.4,-0.6 -2.6,-1.4 -3.7,-2.5 -1.2,-1.1 -2.1,-2.3 -2.9,-3.7 0,0 0,0 0,0 -0.3,-0.5 -0.6,-0.9 -0.9,-1.3 l 0,-0.1 C 44,33.9 43,33.6 41.8,34" />
  </g>
  <g
     id="words"
     transform="matrix(0.498,0,0,-0.516,112,12.6)">
    <path
       id="path3386"
       d="M 0,0 C -0.108,1.06 -0.392,1.82 -0.854,2.27 -1.32,2.73 -1.92,2.96 -2.68,2.96 -3.55,2.96 -4.24,2.61 -4.76,1.92 -5.09,1.49 -5.3,0.852 -5.39,0 L 0,0 Z m 5.57,-2.62 -10.98,0 c 0.1,-0.88 0.34,-1.54 0.72,-1.97 0.53,-0.61 1.22,-0.92 2.07,-0.92 0.54,0 1.05,0.13 1.53,0.4 0.296,0.17 0.615,0.47 0.956,0.9 L 5.26,-4.71 C 4.43,-6.14 3.44,-7.17 2.27,-7.79 1.11,-8.42 -0.565,-8.73 -2.74,-8.73 c -1.9,0 -3.38,0.27 -4.47,0.8 -1.08,0.54 -1.98,1.38 -2.7,2.54 -0.69,1.16 -1.09,2.53 -1.09,4.1 0,2.232 0.7,4.04 2.17,5.42 C -7.4,5.51 -5.42,6.2 -2.9,6.2 -0.861,6.2 0.753,5.89 1.94,5.27 3.12,4.65 4.02,3.76 4.64,2.58 5.26,1.41 5.57,-0.121 5.57,-2 l 0,-0.62 z M -29,11 l 5.5,0 0,-7.26 c 0.7,0.77 1.5,1.32 2.2,1.65 0.7,0.33 1.6,0.5 2.6,0.5 1.5,0 2.7,-0.45 3.5,-1.36 0.9,-0.9 1.3,-2.3 1.3,-4.13 l 0,-9.1 -5.5,0 0,7.8 c 0,0.9 -0.2,1.6 -0.5,1.94 -0.3,0.37 -0.8,0.56 -1.4,0.56 -0.7,0 -1.2,-0.25 -1.6,-0.8 -0.4,-0.5 -0.6,-1.4 -0.6,-2.7 l 0,-6.8 -5.5,0 0,19.7 z m -6,0 0,-5.43 3,0 0,-4.01 -3,0 0,-5.06 c 0,-0.6 0.1,-1 0.2,-1.2 0.2,-0.3 0.5,-0.5 0.9,-0.5 0.4,0 1,0.1 1.7,0.4 l 0.4,-3.8 c -1.3,-0.3 -2.6,-0.4 -3.8,-0.4 -1.3,0 -2.4,0.1 -3,0.5 -0.6,0.3 -1.1,0.9 -1.4,1.6 -0.3,0.7 -0.5,1.8 -0.5,3.4 l 0,5.06 -2,0 0,4.01 2,0 0,2.62 L -35,11 Z M 65,-40 c 0,-3.1 0.7,-5.5 2,-7 1.4,-1.5 3.1,-2.3 5.3,-2.3 2.1,0 3.8,0.8 5.3,2.4 1.4,1.6 2.1,3.9 2.1,7.1 0,3.2 -0.8,5.6 -2.2,7.3 -1.5,1.7 -3.3,2.5 -5.5,2.5 -2.1,0 -3.8,-0.8 -5.1,-2.3 C 65.6,-33.8 65,-36.4 65,-40 m 15.7,21.2 15.7,0 0,-41.3 0,-1.9 c 0,-2.7 -0.5,-5.3 -1.7,-7.8 -1.2,-2.5 -2.7,-4.5 -4.7,-6 -1.9,-1.6 -4.3,-2.7 -7.3,-3.4 -3,-0.7 -6.4,-1 -10.2,-1 -8.8,0 -14.8,1.3 -18.1,4 -3.3,2.6 -4.9,6.1 -4.9,10.5 0,0.6 0,1.3 0.1,2.2 l 16.2,-1.8 c 0.4,-1.5 1.1,-2.6 1.9,-3.1 1.2,-0.9 2.8,-1.3 4.7,-1.3 2.4,0 4.2,0.6 5.4,1.9 1.2,1.3 1.7,3.6 1.7,6.8 l 0,6.6 c -1.6,-2 -3.2,-3.4 -4.9,-4.3 -2.6,-1.3 -5.3,-2 -8.3,-2 -5.9,0 -10.6,2.5 -14.2,7.6 -2.5,3.6 -3.8,8.4 -3.8,14.4 0,6.8 1.7,11.9 4.9,15.5 3.3,3.6 7.6,5.4 13,5.4 3.3,0 6.1,-0.6 8.4,-1.8 2.2,-1.1 4.2,-3 6.1,-5.7 l 0,6.5 z M 27,-41 c -2.3,-0.8 -4.7,-1.5 -7.2,-2.2 -3.4,-0.9 -5.5,-1.8 -6.4,-2.6 -1,-0.9 -1.4,-2 -1.4,-3.1 0,-1.3 0.4,-2.4 1.3,-3.3 1,-0.8 2.3,-1.2 4.1,-1.2 1.9,0 3.6,0.4 5.2,1.3 1.6,0.9 2.7,2.1 3.4,3.4 0.7,1.3 1,3 1,5 l 0,2.7 z m -14.5,8.8 -16,1.7 c 0.6,2.8 1.5,5 2.6,6.6 1.2,1.6 2.8,3 4.9,4.1 1.6,0.9 3.7,1.6 6.4,2 2.6,0.5 5.5,0.7 8.7,0.7 5,0 9,-0.3 12,-0.8 3.1,-0.6 5.6,-1.8 7.7,-3.5 1.4,-1.3 2.5,-3 3.3,-5.3 0.8,-2.2 1.3,-4.4 1.3,-6.4 l 0,-19.3 c 0,-2.1 0.1,-3.7 0.3,-4.9 0.3,-1.1 0.9,-2.6 1.8,-4.4 l -15.7,0 c -0.7,1.1 -1.1,2 -1.3,2.6 -0.2,0.5 -0.4,1.5 -0.6,2.7 -2.1,-2.1 -4.3,-3.6 -6.5,-4.5 -2.9,-1.2 -6.4,-1.8 -10.3,-1.8 -5.2,0 -9.2,1.2 -11.9,3.6 -2.7,2.4 -4,5.4 -4,8.9 0,3.4 1,6.1 2.9,8.2 2,2.2 5.5,3.7 10.8,4.8 6.2,1.2 10.3,2.1 12.2,2.6 1.9,0.5 3.8,1.2 5.9,2 0,2.1 -0.4,3.5 -1.3,4.3 -0.8,0.9 -2.3,1.3 -4.4,1.3 -2.8,0 -4.8,-0.5 -6.2,-1.3 -1.1,-0.7 -2,-2 -2.6,-3.9 M -40,-19 l 15.7,0 0,-7.1 c 1.5,3 3,5.2 4.6,6.3 1.6,1.2 3.6,1.8 6,1.8 2.4,0 5.1,-0.8 8.1,-2.3 l -5.2,-11.9 c -2,0.8 -3.6,1.2 -4.7,1.2 -2.2,0 -3.9,-0.9 -5.1,-2.7 -1.7,-2.6 -2.6,-7.3 -2.6,-14.3 l 0,-14.6 -16.8,0 0,43.6 z m -22,-18 16.3,-4.9 c -1.1,-4.6 -2.8,-8.4 -5.2,-11.5 -2.3,-3.1 -5.2,-5.4 -8.7,-6.9 -3.5,-1.6 -8,-2.4 -13.4,-2.4 -6.5,0 -11.9,1 -16,2.9 -4.2,1.9 -7.8,5.2 -10.8,10 -3.2,4.8 -4.2,10.9 -4.2,18.4 0,10 2,17.6 7.7,23 5.3,5.3 12.8,8 22.5,8 7.6,0 13.5,-1.5 17.9,-4.6 4.3,-3.1 7.5,-7.8 9.6,-14.1 l -16.4,-3.7 c -0.6,1.9 -1.2,3.2 -1.8,4 -1,1.5 -2.3,2.6 -3.8,3.3 -1.5,0.8 -3.2,1.2 -5.1,1.2 -4.2,0 -7.4,-1.7 -9.7,-5.1 -1.7,-2.5 -2.5,-6.5 -2.5,-11.9 0,-6.6 1,-11.2 3,-13.7 2,-2.5 4.9,-3.7 8.6,-3.7 3.5,0 6.2,1 8,3 1.9,2 3.2,4.9 4,8.7" />
  </g>
</svg>
